<?xml version="1.0" encoding="UTF-8" standalone="no"?>
<!-- Created with Inkscape (http://www.inkscape.org/) -->

<svg
   width="1080"
   height="1080"
   viewBox="0 0 285.74999 285.75"
   version="1.1"
   id="svg5"
   inkscape:version="1.2.2 (732a01da63, 2022-12-09)"
   sodipodi:docname="logoidk.svg"
   inkscape:export-filename="web\Assets\web.svg"
   inkscape:export-xdpi="96"
   inkscape:export-ydpi="96"
   xmlns:inkscape="http://www.inkscape.org/namespaces/inkscape"
   xmlns:sodipodi="http://sodipodi.sourceforge.net/DTD/sodipodi-0.dtd"
   xmlns="http://www.w3.org/2000/svg"
   xmlns:svg="http://www.w3.org/2000/svg">
  <sodipodi:namedview
     id="namedview7"
     pagecolor="#505050"
     bordercolor="#ffffff"
     borderopacity="1"
     inkscape:showpageshadow="0"
     inkscape:pageopacity="0"
     inkscape:pagecheckerboard="1"
     inkscape:deskcolor="#505050"
     inkscape:document-units="px"
     showgrid="false"
     inkscape:zoom="0.72515434"
     inkscape:cx="590.90869"
     inkscape:cy="570.22344"
     inkscape:window-width="1920"
     inkscape:window-height="1001"
     inkscape:window-x="-9"
     inkscape:window-y="41"
     inkscape:window-maximized="1"
     inkscape:current-layer="layer3" />
  <defs
     id="defs2" />
  <g
     inkscape:groupmode="layer"
     id="layer2"
     inkscape:label="Layer 2"
     style="display:none;opacity:0.56305">
    <rect
       style="fill:#1a1a1a;stroke-width:0.264583;stroke-linecap:round"
       id="rect1622"
       width="67.853584"
       height="67.853584"
       x="36.802097"
       y="108.9482"
       ry="2.1599309" />
    <rect
       style="fill:#1a1a1a;stroke-width:0.264583;stroke-linecap:round"
       id="rect1622-5"
       width="67.853584"
       height="67.853584"
       x="108.9482"
       y="108.9482"
       ry="2.1599309" />
    <rect
       style="fill:#1a1a1a;stroke-width:0.264583;stroke-linecap:round"
       id="rect1622-6"
       width="67.853584"
       height="67.853584"
       x="181.0943"
       y="108.9482"
       ry="2.1599309" />
    <rect
       style="opacity:0.56305;fill:#1a1a1a;stroke-width:0.264583;stroke-linecap:round"
       id="rect1622-6-1"
       width="67.853584"
       height="67.853584"
       x="216.07938"
       y="108.94204"
       ry="2.1599309" />
  </g>
  <g
     inkscape:groupmode="layer"
     id="layer3"
     inkscape:label="Layer 3">
    <path
       style="fill:#ffffff;fill-opacity:1;stroke:none;stroke-width:48.521;stroke-linecap:round;stroke-linejoin:round;paint-order:markers fill stroke"
       d="m 74.898068,63.10617 c -6.537777,0 -11.801007,5.263218 -11.801007,11.800995 v 13.721858 c 0,0.26198 0.0089,0.521185 0.02551,0.7788 v 116.356407 5.07859 c 0,6.53776 5.263225,11.801 11.801002,11.801 h 13.720654 c 6.537753,0 11.802213,-5.26324 11.802213,-11.801 v -13.72187 -35.58766 h 5.5439 c 6.53778,0 11.801,-5.26325 11.801,-11.801 v -13.72187 c 0,-6.53778 -5.26322,-11.80101 -11.801,-11.80101 h -5.5439 v -23.77937 h 23.7794 v 28.85794 27.16673 48.97054 5.41029 c 0,6.53775 5.26323,11.80099 11.80098,11.80099 h 13.72187 c 6.53776,0 11.801,-5.26323 11.801,-11.80099 v -13.72187 -35.58038 h 10.13406 v 44.22488 5.07737 c 0,6.53775 5.26323,11.80099 11.80099,11.80099 h 27.3672 c 6.53776,0 11.80099,-5.26323 11.80099,-11.80099 v -13.72187 c 0,-6.53777 -5.26323,-11.80101 -11.80099,-11.80101 h -1.84434 v -23.77937 h 1.84434 c 6.53776,0 11.80099,-5.26325 11.80099,-11.80099 v -4.80279 -64.944982 -5.077363 c 0,-6.537777 -5.26323,-11.800995 -11.80099,-11.800995 h -13.72188 c -6.53776,0 -11.80099,5.263218 -11.80099,11.800995 v 13.721858 35.580387 h -23.77938 v -23.77937 h 0.15549 5.07859 c 6.53776,0 11.80099,-5.263255 11.80099,-11.801017 V 74.907165 c 0,-6.537777 -5.26323,-11.800995 -11.80099,-11.800995 h -5.07859 -73.08526 -1.783577 z"
       id="rect1757" />
  </g>
</svg>
